<svg width="20" height="18" viewBox="0 0 20 18" fill="none" xmlns="http://www.w3.org/2000/svg">
<path d="M11.67 7.537C11.5908 7.53646 11.5146 7.56729 11.458 7.62274C11.4014 7.6782 11.3691 7.75378 11.368 7.833V10.045C11.3691 10.1244 11.4015 10.2001 11.4583 10.2556C11.5151 10.3111 11.5916 10.3418 11.671 10.341H18.334C18.4134 10.3418 18.4899 10.3111 18.5467 10.2556C18.6035 10.2001 18.6359 10.1244 18.637 10.045V7.833C18.6359 7.75361 18.6035 7.67787 18.5467 7.62239C18.4899 7.5669 18.4134 7.5362 18.334 7.537H11.67ZM15.756 0.501C16.678 0.545 17.341 0.727 17.761 1.113C18.176 1.495 18.389 2.048 18.431 2.78V4.877C18.4289 5.05558 18.356 5.22603 18.2283 5.3509C18.1006 5.47578 17.9286 5.54487 17.75 5.543C17.6615 5.54406 17.5736 5.52767 17.4915 5.49477C17.4093 5.46187 17.3344 5.41311 17.2711 5.35126C17.2077 5.28942 17.1572 5.2157 17.1224 5.13433C17.0875 5.05295 17.069 4.96551 17.068 4.877L17.069 2.818C17.047 2.438 16.956 2.202 16.826 2.082C16.7 1.966 16.316 1.862 15.723 1.832H2.647C2.11 1.852 1.761 1.954 1.592 2.099C1.462 2.21 1.364 2.516 1.363 3.045L1.36 14.815C1.41 15.329 1.523 15.672 1.668 15.843C1.778 15.973 2.119 16.103 2.621 16.167H15.737C16.351 16.179 16.713 16.087 16.835 15.964C16.97 15.827 17.068 15.467 17.068 14.878V12.833C17.068 12.466 17.373 12.167 17.75 12.167C18.126 12.167 18.431 12.466 18.431 12.833V14.878C18.431 15.778 18.247 16.451 17.816 16.888C17.372 17.338 16.666 17.518 15.723 17.498L2.54 17.495C1.643 17.391 1 17.145 0.617 16.692C0.27 16.282 0.077 15.697 0 14.879V3.044C0.002 2.168 0.212 1.509 0.694 1.097C1.136 0.717 1.774 0.532 2.621 0.5H15.756V0.501ZM18.334 6.205C19.254 6.205 20 6.934 20 7.833V10.045C20 10.944 19.254 11.673 18.334 11.673H11.671C10.751 11.673 10.005 10.943 10.005 10.045V7.833C10.005 6.934 10.751 6.205 11.671 6.205H18.334ZM13.337 8.145C12.877 8.145 12.504 8.505 12.504 8.948C12.504 9.392 12.877 9.751 13.337 9.751C13.797 9.751 14.17 9.391 14.17 8.948C14.17 8.504 13.797 8.144 13.337 8.144V8.145Z" fill="white"/>
</svg>
